<svg height="200" viewBox="0 0 60 58" width="200" xmlns="http://www.w3.org/2000/svg">
    <g fill="none">
        <path id="Shape"
              d="m33.81 50h-6.81c-.5522847 0-1-.4477153-1-1s.4477153-1 1-1h6.81c.5522847 0 1 .4477153 1 1s-.4477153 1-1 1z"
              fill="#cbb292"/>
        <path id="Shape"
              d="m31 55h-1c-.5522847 0-1-.4477153-1-1s.4477153-1 1-1h1c.5522847 0 1 .4477153 1 1s-.4477153 1-1 1z"
              fill="#a59078"/>
        <path id="Shape"
              d="m59 50h-10c-.5522847 0-1-.4477153-1-1s.4477153-1 1-1h10c.5522847 0 1 .4477153 1 1s-.4477153 1-1 1z"
              fill="#cbb292"/>
        <path id="Shape"
              d="m56 55h-4c-.5522847 0-1-.4477153-1-1s.4477153-1 1-1h4c.5522847 0 1 .4477153 1 1s-.4477153 1-1 1z"
              fill="#a59078"/>
        <path id="Shape"
              d="m40.41 46-.79 9.53c-.054967.6761406-.3661859 1.3057327-.87 1.76-.7642338.6954405-1.85835.8937239-2.81803.510703-.9596801-.3830209-1.616597-1.2801645-1.69197-2.310703l-.79-11.91z"
              fill="#e57e25"/>
        <path id="Shape"
              d="m49.36 43.74-.78 11.75c-.1204826 1.39599-1.2888205 2.4678363-2.69 2.4678363s-2.5695174-1.0718463-2.69-2.4678363l-.79-9.49z"
              fill="#e57e25"/>
        <path id="Shape"
              d="m33.45 43.58 7 2.42-.16 2c-2.3370338-.0534794-4.605837-.7981479-6.52-2.14-.24-.2-.16.14-.32-2.28z"
              fill="#d25627"/>
        <path id="Shape" d="m49.36 43.74-.14 2.11c-1.9059243 1.3371237-4.162729 2.0847554-6.49 2.15h-.16l-.16-2z"
              fill="#d25627"/>
        <path id="Shape"
              d="m3 50h-2c-.55228475 0-1-.4477153-1-1s.44771525-1 1-1h2c.55228475 0 1 .4477153 1 1s-.44771525 1-1 1z"
              fill="#cbb292"/>
        <path id="Shape"
              d="m23 50h-16c-.55228475 0-1-.4477153-1-1s.44771525-1 1-1h16c.5522847 0 1 .4477153 1 1s-.4477153 1-1 1z"
              fill="#cbb292"/>
        <path id="Shape"
              d="m6 55h-2c-.55228475 0-1-.4477153-1-1s.44771525-1 1-1h2c.55228475 0 1 .4477153 1 1s-.44771525 1-1 1z"
              fill="#a59078"/>
        <path id="Shape"
              d="m18 55h-8c-.55228475 0-1-.4477153-1-1s.44771525-1 1-1h8c.5522847 0 1 .4477153 1 1s-.4477153 1-1 1z"
              fill="#a59078"/>
        <path id="Shape"
              d="m52 34-.46 6.76c-.4279866 1.1862239-1.1839634 2.226559-2.18 3l-.09.08c-5.24 4-20.82 3.29-17.92-8.58l1.65-6.26 4-4 11 1z"
              fill="#f29c1f"/>
        <path id="Shape"
              d="m47.75 28.43h-12.68c-.5047272-.1393322-.9913814-.3373501-1.45-.59-2.39-1.28-2.35-3.57.18-4.63h15.2c2.72 1.12 2.85 4.03-1.25 5.22z"
              fill="#f29c1f"/>
        <path id="Shape"
              d="m46.41 33v2c0 .5522847-.4477153 1-1 1h-3c-.5522847 0-1-.4477153-1-1v-2c0-.5522847.4477153-1 1-1h3c.5522847 0 1 .4477153 1 1z"
              fill="#35495e"/>
        <path id="Shape"
              d="m37 27-3 6-2.65 2.24-1.21 1c-.7408612.6349555-1.7442361.8699467-2.69.63-.49-.13.18.24-7.66-4.78-1.1762126-.963885-1.44517-2.655381-.6259342-3.9365535s2.4674968-1.7467182 3.8359342-1.0834465l5 3.2 4.24-3.66z"
              fill="#f29c1f"/>
        <path id="Shape"
              d="m52 34-.46 6.76c-.1765547.4898111-.411588.95652-.7 1.39-.5801704-.3065102-1.0438505-.7947793-1.32-1.39-.19-.35-.1.19-.64-7.66l.12-5.1z"
              fill="#e57e25"/>
        <path id="Shape"
              d="m54.57 41.94c-1.142678.2055866-2.3035791-.2510345-3-1.18-.24-.28-.07.19-2.13-7.38l-3.44-4.38-1-3c1.9351712-.0914029 3.8746379.0090876 5.79.3 1.05.15 2.49.81 3.62 3.07 1.2360261 2.9146629 2.1059924 5.9713011 2.59 9.1.2845575 1.6286556-.8022086 3.1805397-2.43 3.47z"
              fill="#f29c1f"/>
        <path id="Shape"
              d="m50.66 24.47c-4.92 3.32-13.28 3.45-18.45-.08.4046582-.5346557.9524628-.9437756 1.58-1.18h15.21c.6703059.2382532 1.250261.6784601 1.66 1.26z"
              fill="#e57e25"/>
        <path id="Shape"
              d="m29 29.36v7.53c-.5077464.1357766-1.0422536.1357766-1.55 0-.48-.13-.18 0-4.45-2.7v-7.12l5 3.2z"
              fill="#e57e25"/>
        <path id="Shape"
              d="m24 3v21.48c-.8-5.72-6.85-7.24-12.6-6.48-7.56 1-8.4-12-8.4-12 10 3.09 15.23 2.2 18 .61 1.4443462-.75146899 2.5255527-2.05252086 3-3.61z"
              fill="#955ba5"/>
        <path id="Shape"
              d="m27 2v54c0 1.1045695-.8954305 2-2 2s-2-.8954305-2-2v-54c0-1.1045695.8954305-2 2-2s2 .8954305 2 2z"
              fill="#547580"/>
        <path id="Shape"
              d="m23 4.93v16.73c-.5093502-.820884-1.1919408-1.5205394-2-2.05v-13c.7641661-.43244636 1.4421433-1.00194716 2-1.68z"
              fill="#894b9d"/>
        <path id="Shape" d="m56 13c0 7.5-6.87 12-14.5 12s-14.5-4.51-14.5-12c0-6.76 6.17-13 14.5-13s14.5 6.27 14.5 13z"
              fill="#d25627"/>
        <path id="Shape"
              d="m56 12c-.74 9.74-13.63 13.63-22.34 9.22-3.6927621-1.6711512-6.2127779-5.1862111-6.61-9.22.57-6.72 6.81-12 14.45-12s13.88 5.28 14.5 12z"
              fill="#e57e25"/>
        <path id="Shape"
              d="m56 13.28c0 4-6.49 6.72-14.5 6.72s-14.5-2.7-14.5-6.72c0-7.23 19.06-10.09 26.81-3.85 1.2816183.8797351 2.0888228 2.2987932 2.19 3.85z"
              fill="#2c3e50"/>
        <path id="Shape" d="m53.81 9.43c-2.13 6.48-20.18 7.27-26.58 2.57 2.33-6.55 19.57-8.21 26.58-2.57z"
              fill="#35495e"/>
        <g fill="#fff">
            <path id="Shape"
                  d="m38 11.14c-.5522847.0276142-1.0223857-.3977153-1.05-.95-.0276142-.55228474.3977153-1.02238575.95-1.05 1-.09 2-.14 3.1-.14.5522847 0 1 .44771525 1 1 0 .5522847-.4477153 1-1 1-1.93 0-2.78.14-3 .14z"/>
            <path id="Shape"
                  d="m32 13c-.4037087.0023715-.7692453-.2382408-.9266917-.6099894-.1574465-.3717485-.0759163-.8017067.2066917-1.0900106.6987258-.5931738 1.512367-1.0357401 2.39-1.3.337616-.11789764.7124837-.04672358.983394.1867116.2709104.2334352.3967056.5936672.33.945-.0667056.3513329-.315778.6403908-.653394.7582884-1.86.66-1.61 1.11-2.33 1.11z"/>
        </g>
    </g>
</svg>